<svg xmlns="http://www.w3.org/2000/svg" xmlns:xlink="http://www.w3.org/1999/xlink" width="500" zoomAndPan="magnify" viewBox="0 0 375 374.999991" height="500" preserveAspectRatio="xMidYMid meet" version="1.0"><defs><g/><clipPath id="a754971c2b"><path d="M 0.515625 28.574219 L 27.679688 28.574219 L 27.679688 56.414062 L 0.515625 56.414062 Z M 0.515625 28.574219 " clip-rule="nonzero"/></clipPath><clipPath id="caccbf3807"><path d="M 28.25 56.214844 L 53 56.214844 L 53 78.398438 L 28.25 78.398438 Z M 28.25 56.214844 " clip-rule="nonzero"/></clipPath><clipPath id="021f21fc2d"><path d="M 28.445312 31.429688 L 52.890625 31.429688 L 52.890625 55.875 L 28.445312 55.875 Z M 28.445312 31.429688 " clip-rule="nonzero"/></clipPath><clipPath id="5c62e0b60c"><path d="M 1.605469 67 L 26.730469 67 L 26.730469 75.59375 L 1.605469 75.59375 Z M 1.605469 67 " clip-rule="nonzero"/></clipPath><clipPath id="8cb08a42bc"><path d="M 1.605469 63 L 26.730469 63 L 26.730469 73 L 1.605469 73 Z M 1.605469 63 " clip-rule="nonzero"/></clipPath><clipPath id="dbb3d30e8d"><path d="M 1.605469 60.65625 L 26.730469 60.65625 L 26.730469 71 L 1.605469 71 Z M 1.605469 60.65625 " clip-rule="nonzero"/></clipPath><clipPath id="657728b052"><path d="M 8 64 L 26.730469 64 L 26.730469 69 L 8 69 Z M 8 64 " clip-rule="nonzero"/></clipPath><clipPath id="ffe26116a4"><rect x="0" width="54" y="0" height="79"/></clipPath></defs><g transform="matrix(1, 0, 0, 1, 42, 134)"><g clip-path="url(#ffe26116a4)"><g clip-path="url(#a754971c2b)"><path fill="#bb0000" d="M 13.953125 56.015625 C 21.382812 56.015625 27.40625 49.988281 27.40625 42.558594 L 27.40625 42.335938 C 27.40625 41.453125 27.320312 40.578125 27.148438 39.710938 C 26.976562 38.84375 26.71875 38.003906 26.382812 37.1875 C 26.042969 36.371094 25.628906 35.597656 25.140625 34.863281 C 24.648438 34.128906 24.089844 33.449219 23.464844 32.824219 C 22.839844 32.199219 22.160156 31.640625 21.425781 31.148438 C 20.691406 30.660156 19.917969 30.246094 19.101562 29.90625 C 18.285156 29.570312 17.445312 29.3125 16.578125 29.140625 C 15.710938 28.96875 14.835938 28.882812 13.953125 28.882812 C 6.523438 28.882812 0.5 34.90625 0.5 42.335938 L 0.5 42.558594 C 0.5 49.992188 6.523438 56.015625 13.953125 56.015625 Z M 5.542969 42.335938 C 5.542969 37.699219 9.316406 33.929688 13.953125 33.929688 C 18.589844 33.929688 22.359375 37.699219 22.359375 42.335938 L 22.359375 42.558594 C 22.359375 47.195312 18.589844 50.96875 13.953125 50.96875 C 9.316406 50.96875 5.542969 47.195312 5.542969 42.558594 Z M 5.542969 42.335938 " fill-opacity="1" fill-rule="nonzero"/></g><g clip-path="url(#caccbf3807)"><path fill="#ffde59" d="M 40.683594 78.25 C 33.898438 78.25 28.398438 72.75 28.398438 65.964844 L 28.398438 53.472656 L 52.96875 53.472656 L 52.96875 65.964844 C 52.96875 72.75 47.46875 78.25 40.683594 78.25 Z M 40.683594 78.25 " fill-opacity="1" fill-rule="nonzero"/></g><g clip-path="url(#021f21fc2d)"><path fill="#00964e" d="M 52.515625 55.308594 L 52.316406 55.308594 C 39.128906 55.308594 28.4375 44.617188 28.4375 31.429688 L 28.636719 31.429688 C 41.824219 31.429688 52.515625 42.121094 52.515625 55.308594 Z M 52.515625 55.308594 " fill-opacity="1" fill-rule="nonzero"/></g><g clip-path="url(#5c62e0b60c)"><path fill="#0800a8" d="M 26.425781 75.289062 L 1.640625 75.289062 L 1.640625 67.03125 C 9.148438 71.339844 17.550781 71.480469 26.425781 69.4375 Z M 26.425781 75.289062 " fill-opacity="1" fill-rule="nonzero"/></g><g clip-path="url(#8cb08a42bc)"><path fill="#0800a8" d="M 1.640625 63.460938 C 8.101562 72.070312 26.425781 69.371094 26.425781 69.371094 L 26.425781 70.089844 C 12.117188 75.703125 1.640625 69.183594 1.640625 69.183594 Z M 1.640625 63.460938 " fill-opacity="1" fill-rule="nonzero"/></g><g clip-path="url(#dbb3d30e8d)"><path fill="#0800a8" d="M 1.640625 60.65625 C 1.640625 60.65625 12.597656 71.503906 26.425781 68.59375 L 26.425781 69.371094 C 22.527344 71.214844 8.75 71.242188 1.640625 65.910156 Z M 1.640625 60.65625 " fill-opacity="1" fill-rule="nonzero"/></g><g clip-path="url(#657728b052)"><path fill="#0800a8" d="M 8.507812 64.785156 C 12.777344 66.53125 20.84375 66.75 26.425781 64.023438 L 26.425781 68.035156 C 25.574219 68.542969 16.515625 69.851562 8.507812 64.785156 Z M 8.507812 64.785156 " fill-opacity="1" fill-rule="nonzero"/></g></g></g><g fill="#000000" fill-opacity="1"><g transform="translate(100.19531, 195.562487)"><g><path d="M 13.90625 -12.734375 C 13.90625 -11.066406 13.289062 -9.804688 12.0625 -8.953125 C 10.84375 -8.097656 9.1875 -7.671875 7.09375 -7.671875 L 4.859375 -7.671875 L 4.859375 0 L 2.34375 0 L 2.34375 -17.203125 L 7.921875 -17.203125 C 9.671875 -17.203125 11.101562 -16.800781 12.21875 -16 C 13.34375 -15.207031 13.90625 -14.117188 13.90625 -12.734375 Z M 4.859375 -8.421875 L 7.171875 -8.421875 C 7.984375 -8.421875 8.679688 -8.578125 9.265625 -8.890625 C 9.847656 -9.203125 10.269531 -9.597656 10.53125 -10.078125 C 10.988281 -10.941406 11.21875 -11.785156 11.21875 -12.609375 C 11.21875 -13.003906 11.113281 -13.476562 10.90625 -14.03125 C 10.5 -15.175781 9.644531 -15.921875 8.34375 -16.265625 C 7.09375 -16.265625 5.929688 -16.117188 4.859375 -15.828125 Z M 4.859375 -8.421875 "/></g></g></g><g fill="#000000" fill-opacity="1"><g transform="translate(113.205159, 195.562487)"><g><path d="M 0.265625 0 L 7.984375 -17.625 L 8.359375 -17.625 L 16.078125 0 L 13.25 0 L 11.296875 -4.671875 L 3.578125 -4.671875 L 1.65625 0 Z M 3.96875 -5.671875 L 10.890625 -5.671875 L 7.453125 -14.078125 Z M 3.96875 -5.671875 "/></g></g></g><g fill="#000000" fill-opacity="1"><g transform="translate(129.539528, 195.562487)"><g><path d="M 2.34375 0 L 2.34375 -17.203125 L 12.765625 -17.203125 L 12.5 -15.453125 L 7.671875 -16.265625 C 6.816406 -16.265625 5.878906 -16.117188 4.859375 -15.828125 L 4.859375 -9.515625 L 10.625 -9.515625 L 10.625 -8.515625 L 4.859375 -8.515625 L 4.859375 -0.9375 L 12.921875 -1.734375 L 12.65625 0 Z M 2.34375 0 "/></g></g></g><g fill="#000000" fill-opacity="1"><g transform="translate(144.133983, 195.562487)"><g><path d="M 4.203125 -14.21875 C 4.203125 -13.445312 4.5 -12.738281 5.09375 -12.09375 C 5.695312 -11.445312 6.425781 -10.875 7.28125 -10.375 C 8.144531 -9.882812 9 -9.382812 9.84375 -8.875 C 10.695312 -8.363281 11.421875 -7.734375 12.015625 -6.984375 C 12.617188 -6.242188 12.921875 -5.421875 12.921875 -4.515625 C 12.921875 -3.097656 12.394531 -1.9375 11.34375 -1.03125 C 10.289062 -0.132812 8.875 0.3125 7.09375 0.3125 C 5.3125 0.3125 3.546875 -0.0234375 1.796875 -0.703125 L 1.796875 -1.921875 C 3.554688 -1.035156 5.054688 -0.59375 6.296875 -0.59375 C 7.535156 -0.59375 8.5 -0.894531 9.1875 -1.5 C 9.882812 -2.113281 10.234375 -2.957031 10.234375 -4.03125 C 10.234375 -4.757812 9.945312 -5.421875 9.375 -6.015625 C 8.800781 -6.609375 8.109375 -7.125 7.296875 -7.5625 C 6.484375 -8.007812 5.671875 -8.46875 4.859375 -8.9375 C 4.046875 -9.40625 3.351562 -10 2.78125 -10.71875 C 2.207031 -11.4375 1.921875 -12.304688 1.921875 -13.328125 C 1.921875 -14.347656 2.375 -15.300781 3.28125 -16.1875 C 4.195312 -17.070312 5.554688 -17.515625 7.359375 -17.515625 C 8.535156 -17.515625 10.023438 -17.242188 11.828125 -16.703125 L 11.5625 -14.9375 C 9.226562 -15.945312 7.226562 -16.453125 5.5625 -16.453125 C 4.65625 -16.015625 4.203125 -15.269531 4.203125 -14.21875 Z M 4.203125 -14.21875 "/></g></g></g><g fill="#000000" fill-opacity="1"><g transform="translate(158.572626, 195.562487)"><g><path d="M 8.21875 0 L 5.6875 0 L 5.6875 -15.953125 C 5.101562 -16.085938 4.515625 -16.15625 3.921875 -16.15625 L 0.421875 -15.359375 L 0.265625 -17.203125 L 13.640625 -17.203125 L 13.515625 -15.359375 L 9.984375 -16.15625 C 9.390625 -16.15625 8.800781 -16.085938 8.21875 -15.953125 Z M 8.21875 0 "/></g></g></g><g fill="#000000" fill-opacity="1"><g transform="translate(172.465924, 195.562487)"><g><path d="M 15.125 -17.203125 L 15.125 -6.65625 C 15.125 -5.039062 14.953125 -3.828125 14.609375 -3.015625 C 14.453125 -2.648438 14.203125 -2.238281 13.859375 -1.78125 C 13.523438 -1.320312 13.132812 -0.953125 12.6875 -0.671875 C 11.539062 -0.015625 10.109375 0.3125 8.390625 0.3125 C 4.097656 0.3125 1.953125 -1.894531 1.953125 -6.3125 L 1.953125 -17.203125 L 4.59375 -17.203125 L 4.59375 -6.109375 C 4.59375 -5.609375 4.601562 -5.203125 4.625 -4.890625 C 4.644531 -4.578125 4.734375 -4.132812 4.890625 -3.5625 C 5.054688 -2.988281 5.28125 -2.523438 5.5625 -2.171875 C 5.851562 -1.828125 6.304688 -1.515625 6.921875 -1.234375 C 7.535156 -0.960938 8.269531 -0.828125 9.125 -0.828125 C 12.363281 -0.828125 13.984375 -2.5625 13.984375 -6.03125 L 13.984375 -17.203125 Z M 15.125 -17.203125 "/></g></g></g><g fill="#000000" fill-opacity="1"><g transform="translate(189.527416, 195.562487)"><g><path d="M 11.515625 -4.078125 L 17.25 -17.203125 L 19.90625 -17.203125 L 20.859375 0 L 18.21875 0 L 17.515625 -14.78125 L 17.40625 -14.78125 L 10.859375 0 L 10.5 0 L 4.078125 -14.1875 L 3.96875 -14.1875 L 3.28125 0 L 2.125 0 L 3.09375 -17.203125 L 5.515625 -17.203125 Z M 11.515625 -4.078125 "/></g></g></g><g fill="#000000" fill-opacity="1"><g transform="translate(212.613672, 195.562487)"><g/></g></g><g fill="#000000" fill-opacity="1"><g transform="translate(219.105871, 195.562487)"><g><path d="M 4.859375 -8.515625 L 4.859375 0 L 2.34375 0 L 2.34375 -17.203125 L 4.859375 -17.203125 L 4.859375 -9.515625 L 12.734375 -9.515625 L 12.734375 -17.203125 L 15.25 -17.203125 L 15.25 0 L 12.734375 0 L 12.734375 -8.515625 Z M 4.859375 -8.515625 "/></g></g></g><g fill="#000000" fill-opacity="1"><g transform="translate(236.686741, 195.562487)"><g><path d="M 10.15625 -17.515625 C 12.40625 -17.515625 14.265625 -16.769531 15.734375 -15.28125 C 17.210938 -13.800781 17.953125 -11.75 17.953125 -9.125 C 17.953125 -7.425781 17.65625 -5.9375 17.0625 -4.65625 C 16.476562 -3.382812 15.710938 -2.40625 14.765625 -1.71875 C 12.910156 -0.363281 10.863281 0.3125 8.625 0.3125 C 6.394531 0.3125 4.546875 -0.4375 3.078125 -1.9375 C 1.617188 -3.4375 0.890625 -5.503906 0.890625 -8.140625 C 0.890625 -9.503906 1.082031 -10.734375 1.46875 -11.828125 C 1.851562 -12.929688 2.363281 -13.828125 3 -14.515625 C 3.632812 -15.210938 4.367188 -15.796875 5.203125 -16.265625 C 6.722656 -17.097656 8.375 -17.515625 10.15625 -17.515625 Z M 4.9375 -2.96875 C 5.382812 -2.195312 5.988281 -1.597656 6.75 -1.171875 C 7.519531 -0.753906 8.398438 -0.546875 9.390625 -0.546875 C 10.390625 -0.546875 11.273438 -0.796875 12.046875 -1.296875 C 12.828125 -1.796875 13.4375 -2.457031 13.875 -3.28125 C 14.757812 -4.90625 15.203125 -6.648438 15.203125 -8.515625 C 15.203125 -10.828125 14.742188 -12.679688 13.828125 -14.078125 C 12.804688 -15.660156 11.113281 -16.453125 8.75 -16.453125 C 7.070312 -15.859375 5.800781 -14.84375 4.9375 -13.40625 C 4.070312 -11.96875 3.640625 -10.335938 3.640625 -8.515625 C 3.640625 -6.304688 4.070312 -4.457031 4.9375 -2.96875 Z M 4.9375 -2.96875 "/></g></g></g><g fill="#000000" fill-opacity="1"><g transform="translate(255.514114, 195.562487)"><g><path d="M 2.34375 0 L 2.34375 -17.203125 L 4.890625 -17.203125 L 4.890625 -1.40625 C 5.941406 -1.09375 6.789062 -0.9375 7.4375 -0.9375 L 12.140625 -1.734375 L 11.828125 0 Z M 2.34375 0 "/></g></g></g><g fill="#000000" fill-opacity="1"><g transform="translate(268.16091, 195.562487)"><g><path d="M 4.734375 -17.203125 L 4.734375 0 L 2.34375 0 L 2.34375 -17.203125 Z M 4.734375 -17.203125 "/></g></g></g><g fill="#000000" fill-opacity="1"><g transform="translate(275.22442, 195.562487)"><g><path d="M 2.34375 0 L 2.34375 -17.203125 L 7.25 -17.203125 C 9.289062 -17.203125 11.132812 -16.769531 12.78125 -15.90625 C 13.664062 -15.457031 14.4375 -14.894531 15.09375 -14.21875 C 15.75 -13.539062 16.273438 -12.675781 16.671875 -11.625 C 17.078125 -10.582031 17.28125 -9.421875 17.28125 -8.140625 C 17.28125 -6.296875 16.820312 -4.742188 15.90625 -3.484375 C 14.21875 -1.160156 11.5 0 7.75 0 Z M 7.21875 -0.890625 C 9.425781 -0.890625 11.195312 -1.535156 12.53125 -2.828125 C 13.863281 -4.128906 14.53125 -6.035156 14.53125 -8.546875 C 14.53125 -10.484375 14 -12.140625 12.9375 -13.515625 C 11.882812 -14.898438 10.515625 -15.816406 8.828125 -16.265625 C 7.328125 -16.265625 6.015625 -16.082031 4.890625 -15.71875 L 4.890625 -1.125 C 5.441406 -0.96875 6.21875 -0.890625 7.21875 -0.890625 Z M 7.21875 -0.890625 "/></g></g></g><g fill="#000000" fill-opacity="1"><g transform="translate(293.610337, 195.562487)"><g><path d="M 0.265625 0 L 7.984375 -17.625 L 8.359375 -17.625 L 16.078125 0 L 13.25 0 L 11.296875 -4.671875 L 3.578125 -4.671875 L 1.65625 0 Z M 3.96875 -5.671875 L 10.890625 -5.671875 L 7.453125 -14.078125 Z M 3.96875 -5.671875 "/></g></g></g><g fill="#000000" fill-opacity="1"><g transform="translate(308.515807, 195.562487)"><g><path d="M 8.90625 0 L 6.390625 0 L 6.390625 -6.390625 L 0.515625 -17.203125 L 3.359375 -17.203125 L 8.15625 -7.328125 L 12.65625 -17.203125 L 13.953125 -17.203125 L 8.90625 -6.515625 Z M 8.90625 0 "/></g></g></g><g fill="#000000" fill-opacity="1"><g transform="translate(322.980406, 195.562487)"><g><path d="M 4.203125 -14.21875 C 4.203125 -13.445312 4.5 -12.738281 5.09375 -12.09375 C 5.695312 -11.445312 6.425781 -10.875 7.28125 -10.375 C 8.144531 -9.882812 9 -9.382812 9.84375 -8.875 C 10.695312 -8.363281 11.421875 -7.734375 12.015625 -6.984375 C 12.617188 -6.242188 12.921875 -5.421875 12.921875 -4.515625 C 12.921875 -3.097656 12.394531 -1.9375 11.34375 -1.03125 C 10.289062 -0.132812 8.875 0.3125 7.09375 0.3125 C 5.3125 0.3125 3.546875 -0.0234375 1.796875 -0.703125 L 1.796875 -1.921875 C 3.554688 -1.035156 5.054688 -0.59375 6.296875 -0.59375 C 7.535156 -0.59375 8.5 -0.894531 9.1875 -1.5 C 9.882812 -2.113281 10.234375 -2.957031 10.234375 -4.03125 C 10.234375 -4.757812 9.945312 -5.421875 9.375 -6.015625 C 8.800781 -6.609375 8.109375 -7.125 7.296875 -7.5625 C 6.484375 -8.007812 5.671875 -8.46875 4.859375 -8.9375 C 4.046875 -9.40625 3.351562 -10 2.78125 -10.71875 C 2.207031 -11.4375 1.921875 -12.304688 1.921875 -13.328125 C 1.921875 -14.347656 2.375 -15.300781 3.28125 -16.1875 C 4.195312 -17.070312 5.554688 -17.515625 7.359375 -17.515625 C 8.535156 -17.515625 10.023438 -17.242188 11.828125 -16.703125 L 11.5625 -14.9375 C 9.226562 -15.945312 7.226562 -16.453125 5.5625 -16.453125 C 4.65625 -16.015625 4.203125 -15.269531 4.203125 -14.21875 Z M 4.203125 -14.21875 "/></g></g></g><path stroke-linecap="butt" transform="matrix(0.749999, 0.00133928, -0.00133928, 0.749999, 113.813171, 202.713971)" fill="none" stroke-linejoin="miter" d="M -0.000000299871 0.501165 L 280.000466 0.501165 " stroke="#000000" stroke-width="1" stroke-opacity="1" stroke-miterlimit="4"/></svg>